<mxfile host="app.diagrams.net" modified="2023-11-09T09:37:21.507Z" agent="Mozilla/5.0 (Windows NT 10.0; Win64; x64) AppleWebKit/537.36 (KHTML, like Gecko) Chrome/119.0.0.0 Safari/537.36" version="21.6.8" etag="BPELxC2Ekb4kFMOgmxHG" type="github">
  <diagram name="Page-1" id="dmhKxIQIbucqCMdSsa3R">
    <mxGraphModel>
      <root>
        <mxCell id="0" />
        <mxCell id="1" parent="0" />
      </root>
    </mxGraphModel>
  </diagram>
</mxfile>
